<?xml version="1.0" encoding="UTF-8" standalone="no"?><svg xmlns="http://www.w3.org/2000/svg" xmlns:xlink="http://www.w3.org/1999/xlink" contentScriptType="application/ecmascript" contentStyleType="text/css" height="844px" preserveAspectRatio="none" style="width:1024px;height:844px;" version="1.1" viewBox="0 0 1024 844" width="1024px" zoomAndPan="magnify"><defs><filter height="300%" id="fufqdtdnx3szc" width="300%" x="-1" y="-1"><feGaussianBlur result="blurOut" stdDeviation="2.0"/><feColorMatrix in="blurOut" result="blurOut2" type="matrix" values="0 0 0 0 0 0 0 0 0 0 0 0 0 0 0 0 0 0 .4 0"/><feOffset dx="4.0" dy="4.0" in="blurOut2" result="blurOut3"/><feBlend in="SourceGraphic" in2="blurOut3" mode="normal"/></filter></defs><g><text fill="#000000" font-family="sans-serif" font-size="18" lengthAdjust="spacing" textLength="260" x="378.5" y="28.708">Inner Bank Payment Transfer</text><rect fill="#90EE90" height="797.5469" style="stroke:#A80036;stroke-width:1.0;" width="734" x="195" y="40.9531"/><text fill="#000000" font-family="sans-serif" font-size="13" font-weight="bold" lengthAdjust="spacing" textLength="126" x="499" y="53.02">payment-process</text><line style="stroke:#A80036;stroke-width:1.0;stroke-dasharray:5.0,5.0;" x1="23" x2="23" y1="138.6797" y2="752.2031"/><line style="stroke:#A80036;stroke-width:1.0;stroke-dasharray:5.0,5.0;" x1="238" x2="238" y1="138.6797" y2="752.2031"/><line style="stroke:#A80036;stroke-width:1.0;stroke-dasharray:5.0,5.0;" x1="389" x2="389" y1="138.6797" y2="752.2031"/><line style="stroke:#A80036;stroke-width:1.0;stroke-dasharray:5.0,5.0;" x1="594" x2="594" y1="138.6797" y2="752.2031"/><line style="stroke:#A80036;stroke-width:1.0;stroke-dasharray:5.0,5.0;" x1="751" x2="751" y1="138.6797" y2="752.2031"/><line style="stroke:#A80036;stroke-width:1.0;stroke-dasharray:5.0,5.0;" x1="872" x2="872" y1="138.6797" y2="752.2031"/><line style="stroke:#A80036;stroke-width:1.0;stroke-dasharray:5.0,5.0;" x1="973" x2="973" y1="138.6797" y2="752.2031"/><text fill="#000000" font-family="sans-serif" font-size="14" lengthAdjust="spacing" textLength="31" x="5" y="135.3779">user</text><ellipse cx="23.5" cy="65.3828" fill="#0000FF" filter="url(#fufqdtdnx3szc)" rx="8" ry="8" style="stroke:#A80036;stroke-width:2.0;"/><path d="M23.5,73.3828 L23.5,100.3828 M10.5,81.3828 L36.5,81.3828 M23.5,100.3828 L10.5,115.3828 M23.5,100.3828 L36.5,115.3828 " fill="none" filter="url(#fufqdtdnx3szc)" style="stroke:#A80036;stroke-width:2.0;"/><text fill="#000000" font-family="sans-serif" font-size="14" lengthAdjust="spacing" textLength="31" x="5" y="764.1982">user</text><ellipse cx="23.5" cy="777.5" fill="#0000FF" filter="url(#fufqdtdnx3szc)" rx="8" ry="8" style="stroke:#A80036;stroke-width:2.0;"/><path d="M23.5,785.5 L23.5,812.5 M10.5,793.5 L36.5,793.5 M23.5,812.5 L10.5,827.5 M23.5,812.5 L36.5,827.5 " fill="none" filter="url(#fufqdtdnx3szc)" style="stroke:#A80036;stroke-width:2.0;"/><text fill="#000000" font-family="sans-serif" font-size="14" font-style="italic" lengthAdjust="spacing" textLength="73" x="199" y="119.0811">«handler»</text><text fill="#000000" font-family="sans-serif" font-size="14" lengthAdjust="spacing" textLength="54" x="208.5" y="135.3779">request</text><path d="M218,78.0859 L218,102.0859 M218,90.0859 L235,90.0859 " fill="none" filter="url(#fufqdtdnx3szc)" style="stroke:#A80036;stroke-width:2.0;"/><ellipse cx="247" cy="90.0859" fill="#FEFECE" filter="url(#fufqdtdnx3szc)" rx="12" ry="12" style="stroke:#A80036;stroke-width:2.0;"/><text fill="#000000" font-family="sans-serif" font-size="14" font-style="italic" lengthAdjust="spacing" textLength="73" x="199" y="764.1982">«handler»</text><text fill="#000000" font-family="sans-serif" font-size="14" lengthAdjust="spacing" textLength="54" x="208.5" y="780.4951">request</text><path d="M218,787.7969 L218,811.7969 M218,799.7969 L235,799.7969 " fill="none" filter="url(#fufqdtdnx3szc)" style="stroke:#A80036;stroke-width:2.0;"/><ellipse cx="247" cy="799.7969" fill="#FEFECE" filter="url(#fufqdtdnx3szc)" rx="12" ry="12" style="stroke:#A80036;stroke-width:2.0;"/><rect fill="#FEFECE" filter="url(#fufqdtdnx3szc)" height="46.5938" style="stroke:#A80036;stroke-width:1.5;" width="113" x="331" y="87.0859"/><text fill="#000000" font-family="sans-serif" font-size="14" font-style="italic" lengthAdjust="spacing" textLength="99" x="338" y="107.0811">«component»</text><text fill="#000000" font-family="sans-serif" font-size="14" lengthAdjust="spacing" textLength="70" x="352.5" y="123.3779">validation</text><rect fill="#FEFECE" filter="url(#fufqdtdnx3szc)" height="46.5938" style="stroke:#A80036;stroke-width:1.5;" width="113" x="331" y="751.2031"/><text fill="#000000" font-family="sans-serif" font-size="14" font-style="italic" lengthAdjust="spacing" textLength="99" x="338" y="771.1982">«component»</text><text fill="#000000" font-family="sans-serif" font-size="14" lengthAdjust="spacing" textLength="70" x="352.5" y="787.4951">validation</text><rect fill="#FEFECE" filter="url(#fufqdtdnx3szc)" height="46.5938" style="stroke:#A80036;stroke-width:1.5;" width="113" x="536" y="87.0859"/><text fill="#000000" font-family="sans-serif" font-size="14" font-style="italic" lengthAdjust="spacing" textLength="99" x="543" y="107.0811">«component»</text><text fill="#000000" font-family="sans-serif" font-size="14" lengthAdjust="spacing" textLength="57" x="564" y="123.3779">charges</text><rect fill="#FEFECE" filter="url(#fufqdtdnx3szc)" height="46.5938" style="stroke:#A80036;stroke-width:1.5;" width="113" x="536" y="751.2031"/><text fill="#000000" font-family="sans-serif" font-size="14" font-style="italic" lengthAdjust="spacing" textLength="99" x="543" y="771.1982">«component»</text><text fill="#000000" font-family="sans-serif" font-size="14" lengthAdjust="spacing" textLength="57" x="564" y="787.4951">charges</text><rect fill="#FEFECE" filter="url(#fufqdtdnx3szc)" height="46.5938" style="stroke:#A80036;stroke-width:1.5;" width="113" x="693" y="87.0859"/><text fill="#000000" font-family="sans-serif" font-size="14" font-style="italic" lengthAdjust="spacing" textLength="99" x="700" y="107.0811">«component»</text><text fill="#000000" font-family="sans-serif" font-size="14" lengthAdjust="spacing" textLength="79" x="710" y="123.3779">accounting</text><rect fill="#FEFECE" filter="url(#fufqdtdnx3szc)" height="46.5938" style="stroke:#A80036;stroke-width:1.5;" width="113" x="693" y="751.2031"/><text fill="#000000" font-family="sans-serif" font-size="14" font-style="italic" lengthAdjust="spacing" textLength="99" x="700" y="771.1982">«component»</text><text fill="#000000" font-family="sans-serif" font-size="14" lengthAdjust="spacing" textLength="79" x="710" y="787.4951">accounting</text><text fill="#000000" font-family="sans-serif" font-size="14" font-style="italic" lengthAdjust="spacing" textLength="99" x="820" y="119.0811">«component»</text><text fill="#000000" font-family="sans-serif" font-size="14" lengthAdjust="spacing" textLength="66" x="836.5" y="135.3779">database</text><path d="M854.5,70.0859 C854.5,60.0859 872.5,60.0859 872.5,60.0859 C872.5,60.0859 890.5,60.0859 890.5,70.0859 L890.5,96.0859 C890.5,106.0859 872.5,106.0859 872.5,106.0859 C872.5,106.0859 854.5,106.0859 854.5,96.0859 L854.5,70.0859 " fill="#FEFECE" filter="url(#fufqdtdnx3szc)" style="stroke:#000000;stroke-width:1.5;"/><path d="M854.5,70.0859 C854.5,80.0859 872.5,80.0859 872.5,80.0859 C872.5,80.0859 890.5,80.0859 890.5,70.0859 " fill="none" style="stroke:#000000;stroke-width:1.5;"/><text fill="#000000" font-family="sans-serif" font-size="14" font-style="italic" lengthAdjust="spacing" textLength="99" x="820" y="764.1982">«component»</text><text fill="#000000" font-family="sans-serif" font-size="14" lengthAdjust="spacing" textLength="66" x="836.5" y="780.4951">database</text><path d="M854.5,793.7969 C854.5,783.7969 872.5,783.7969 872.5,783.7969 C872.5,783.7969 890.5,783.7969 890.5,793.7969 L890.5,819.7969 C890.5,829.7969 872.5,829.7969 872.5,829.7969 C872.5,829.7969 854.5,829.7969 854.5,819.7969 L854.5,793.7969 " fill="#FEFECE" filter="url(#fufqdtdnx3szc)" style="stroke:#000000;stroke-width:1.5;"/><path d="M854.5,793.7969 C854.5,803.7969 872.5,803.7969 872.5,803.7969 C872.5,803.7969 890.5,803.7969 890.5,793.7969 " fill="none" style="stroke:#000000;stroke-width:1.5;"/><rect fill="#FEFECE" filter="url(#fufqdtdnx3szc)" height="30.2969" style="stroke:#A80036;stroke-width:1.5;" width="73" x="935" y="103.3828"/><text fill="#000000" font-family="sans-serif" font-size="14" lengthAdjust="spacing" textLength="59" x="942" y="123.3779">databae</text><rect fill="#FEFECE" filter="url(#fufqdtdnx3szc)" height="30.2969" style="stroke:#A80036;stroke-width:1.5;" width="73" x="935" y="751.2031"/><text fill="#000000" font-family="sans-serif" font-size="14" lengthAdjust="spacing" textLength="59" x="942" y="771.1982">databae</text><rect fill="#EEEEEE" filter="url(#fufqdtdnx3szc)" height="3" style="stroke:#EEEEEE;stroke-width:1.0;" width="1017" x="0" y="169.2461"/><line style="stroke:#000000;stroke-width:1.0;" x1="0" x2="1017" y1="169.2461" y2="169.2461"/><line style="stroke:#000000;stroke-width:1.0;" x1="0" x2="1017" y1="172.2461" y2="172.2461"/><rect fill="#EEEEEE" filter="url(#fufqdtdnx3szc)" height="23.1328" style="stroke:#000000;stroke-width:2.0;" width="206" x="405.5" y="158.6797"/><text fill="#000000" font-family="sans-serif" font-size="13" font-weight="bold" lengthAdjust="spacing" textLength="187" x="411.5" y="174.7466">REQUEST HANDLE PHASE</text><polygon fill="#A80036" points="226.5,208.9453,236.5,212.9453,226.5,216.9453,230.5,212.9453" style="stroke:#A80036;stroke-width:1.0;"/><line style="stroke:#A80036;stroke-width:1.0;" x1="23.5" x2="232.5" y1="212.9453" y2="212.9453"/><text fill="#000000" font-family="sans-serif" font-size="13" font-weight="bold" lengthAdjust="spacing" textLength="9" x="30.5" y="207.8794">1</text><text fill="#000000" font-family="sans-serif" font-size="13" lengthAdjust="spacing" textLength="178" x="43.5" y="207.8794">sends the payment request</text><path d="M96,225.9453 L96,250.9453 L377,250.9453 L377,235.9453 L367,225.9453 L96,225.9453 " fill="#FBFB77" filter="url(#fufqdtdnx3szc)" style="stroke:#A80036;stroke-width:1.0;"/><path d="M367,225.9453 L367,235.9453 L377,235.9453 L367,225.9453 " fill="#FBFB77" style="stroke:#A80036;stroke-width:1.0;"/><ellipse cx="107.5" cy="238.5781" fill="#000000" rx="2.5" ry="2.5" style="stroke:#000000;stroke-width:0.0;"/><text fill="#000000" font-family="sans-serif" font-size="13" lengthAdjust="spacing" textLength="247" x="115" y="243.0122">receive data as mentioned in contract</text><rect fill="#EEEEEE" filter="url(#fufqdtdnx3szc)" height="3" style="stroke:#EEEEEE;stroke-width:1.0;" width="1017" x="0" y="280.6445"/><line style="stroke:#000000;stroke-width:1.0;" x1="0" x2="1017" y1="280.6445" y2="280.6445"/><line style="stroke:#000000;stroke-width:1.0;" x1="0" x2="1017" y1="283.6445" y2="283.6445"/><rect fill="#EEEEEE" filter="url(#fufqdtdnx3szc)" height="23.1328" style="stroke:#000000;stroke-width:2.0;" width="158" x="429.5" y="270.0781"/><text fill="#000000" font-family="sans-serif" font-size="13" font-weight="bold" lengthAdjust="spacing" textLength="144" x="435.5" y="286.145">VALIDATION PHASE</text><polygon fill="#A80036" points="377.5,320.3438,387.5,324.3438,377.5,328.3438,381.5,324.3438" style="stroke:#A80036;stroke-width:1.0;"/><line style="stroke:#A80036;stroke-width:1.0;" x1="238.5" x2="383.5" y1="324.3438" y2="324.3438"/><text fill="#000000" font-family="sans-serif" font-size="13" font-weight="bold" lengthAdjust="spacing" textLength="9" x="245.5" y="319.2778">2</text><text fill="#000000" font-family="sans-serif" font-size="13" lengthAdjust="spacing" textLength="114" x="258.5" y="319.2778">ask for validation</text><path d="M270,337.3438 L270,407.3438 L504,407.3438 L504,347.3438 L494,337.3438 L270,337.3438 " fill="#FBFB77" filter="url(#fufqdtdnx3szc)" style="stroke:#A80036;stroke-width:1.0;"/><path d="M494,337.3438 L494,347.3438 L504,347.3438 L494,337.3438 " fill="#FBFB77" style="stroke:#A80036;stroke-width:1.0;"/><ellipse cx="281.5" cy="349.9766" fill="#000000" rx="2.5" ry="2.5" style="stroke:#000000;stroke-width:0.0;"/><text fill="#000000" font-family="sans-serif" font-size="13" lengthAdjust="spacing" textLength="199" x="289" y="354.4106">sender receiver account exists</text><ellipse cx="281.5" cy="365.1094" fill="#000000" rx="2.5" ry="2.5" style="stroke:#000000;stroke-width:0.0;"/><text fill="#000000" font-family="sans-serif" font-size="13" lengthAdjust="spacing" textLength="200" x="289" y="369.5435">sender receiver account status</text><ellipse cx="281.5" cy="380.2422" fill="#000000" rx="2.5" ry="2.5" style="stroke:#000000;stroke-width:0.0;"/><text fill="#000000" font-family="sans-serif" font-size="13" lengthAdjust="spacing" textLength="93" x="289" y="384.6763">balance check</text><ellipse cx="281.5" cy="395.375" fill="#000000" rx="2.5" ry="2.5" style="stroke:#000000;stroke-width:0.0;"/><text fill="#000000" font-family="sans-serif" font-size="13" lengthAdjust="spacing" textLength="102" x="289" y="399.8091">limit of transfer</text><rect fill="#EEEEEE" filter="url(#fufqdtdnx3szc)" height="3" style="stroke:#EEEEEE;stroke-width:1.0;" width="1017" x="0" y="437.4414"/><line style="stroke:#000000;stroke-width:1.0;" x1="0" x2="1017" y1="437.4414" y2="437.4414"/><line style="stroke:#000000;stroke-width:1.0;" x1="0" x2="1017" y1="440.4414" y2="440.4414"/><rect fill="#EEEEEE" filter="url(#fufqdtdnx3szc)" height="23.1328" style="stroke:#000000;stroke-width:2.0;" width="143" x="437" y="426.875"/><text fill="#000000" font-family="sans-serif" font-size="13" font-weight="bold" lengthAdjust="spacing" textLength="124" x="443" y="442.9419">CHARGES PHASE</text><polygon fill="#A80036" points="582.5,477.1406,592.5,481.1406,582.5,485.1406,586.5,481.1406" style="stroke:#A80036;stroke-width:1.0;"/><line style="stroke:#A80036;stroke-width:1.0;" x1="389.5" x2="588.5" y1="481.1406" y2="481.1406"/><text fill="#000000" font-family="sans-serif" font-size="13" font-weight="bold" lengthAdjust="spacing" textLength="9" x="396.5" y="476.0747">3</text><text fill="#000000" font-family="sans-serif" font-size="13" lengthAdjust="spacing" textLength="168" x="409.5" y="476.0747">ask for charge calculation</text><path d="M501,494.1406 L501,534.1406 L683,534.1406 L683,504.1406 L673,494.1406 L501,494.1406 " fill="#FBFB77" filter="url(#fufqdtdnx3szc)" style="stroke:#A80036;stroke-width:1.0;"/><path d="M673,494.1406 L673,504.1406 L683,504.1406 L673,494.1406 " fill="#FBFB77" style="stroke:#A80036;stroke-width:1.0;"/><ellipse cx="512.5" cy="506.7734" fill="#000000" rx="2.5" ry="2.5" style="stroke:#000000;stroke-width:0.0;"/><text fill="#000000" font-family="sans-serif" font-size="13" lengthAdjust="spacing" textLength="107" x="520" y="511.2075">calculate charge</text><ellipse cx="512.5" cy="521.9063" fill="#000000" rx="2.5" ry="2.5" style="stroke:#000000;stroke-width:0.0;"/><text fill="#000000" font-family="sans-serif" font-size="13" lengthAdjust="spacing" textLength="148" x="520" y="526.3403">make the charge entry</text><rect fill="#EEEEEE" filter="url(#fufqdtdnx3szc)" height="3" style="stroke:#EEEEEE;stroke-width:1.0;" width="1017" x="0" y="563.9727"/><line style="stroke:#000000;stroke-width:1.0;" x1="0" x2="1017" y1="563.9727" y2="563.9727"/><line style="stroke:#000000;stroke-width:1.0;" x1="0" x2="1017" y1="566.9727" y2="566.9727"/><rect fill="#EEEEEE" filter="url(#fufqdtdnx3szc)" height="23.1328" style="stroke:#000000;stroke-width:2.0;" width="161" x="428" y="553.4063"/><text fill="#000000" font-family="sans-serif" font-size="13" font-weight="bold" lengthAdjust="spacing" textLength="142" x="434" y="569.4731">ACCOUTING PHASE</text><polygon fill="#A80036" points="739.5,603.6719,749.5,607.6719,739.5,611.6719,743.5,607.6719" style="stroke:#A80036;stroke-width:1.0;"/><line style="stroke:#A80036;stroke-width:1.0;" x1="594.5" x2="745.5" y1="607.6719" y2="607.6719"/><text fill="#000000" font-family="sans-serif" font-size="13" font-weight="bold" lengthAdjust="spacing" textLength="9" x="601.5" y="602.606">4</text><text fill="#000000" font-family="sans-serif" font-size="13" lengthAdjust="spacing" textLength="120" x="614.5" y="602.606">ask for accounting</text><path d="M642,620.6719 L642,660.6719 L856,660.6719 L856,630.6719 L846,620.6719 L642,620.6719 " fill="#FBFB77" filter="url(#fufqdtdnx3szc)" style="stroke:#A80036;stroke-width:1.0;"/><path d="M846,620.6719 L846,630.6719 L856,630.6719 L846,620.6719 " fill="#FBFB77" style="stroke:#A80036;stroke-width:1.0;"/><ellipse cx="653.5" cy="633.3047" fill="#000000" rx="2.5" ry="2.5" style="stroke:#000000;stroke-width:0.0;"/><text fill="#000000" font-family="sans-serif" font-size="13" lengthAdjust="spacing" textLength="180" x="661" y="637.7388">make journal voucher entry</text><ellipse cx="653.5" cy="648.4375" fill="#000000" rx="2.5" ry="2.5" style="stroke:#000000;stroke-width:0.0;"/><text fill="#000000" font-family="sans-serif" font-size="13" lengthAdjust="spacing" textLength="116" x="661" y="652.8716">ledger accounting</text><rect fill="#EEEEEE" filter="url(#fufqdtdnx3szc)" height="3" style="stroke:#EEEEEE;stroke-width:1.0;" width="1017" x="0" y="690.5039"/><line style="stroke:#000000;stroke-width:1.0;" x1="0" x2="1017" y1="690.5039" y2="690.5039"/><line style="stroke:#000000;stroke-width:1.0;" x1="0" x2="1017" y1="693.5039" y2="693.5039"/><rect fill="#EEEEEE" filter="url(#fufqdtdnx3szc)" height="23.1328" style="stroke:#000000;stroke-width:2.0;" width="142" x="437.5" y="679.9375"/><text fill="#000000" font-family="sans-serif" font-size="13" font-weight="bold" lengthAdjust="spacing" textLength="123" x="443.5" y="696.0044">STORAGE PHASE</text><polygon fill="#A80036" points="961.5,730.2031,971.5,734.2031,961.5,738.2031,965.5,734.2031" style="stroke:#A80036;stroke-width:1.0;"/><line style="stroke:#A80036;stroke-width:1.0;" x1="751.5" x2="967.5" y1="734.2031" y2="734.2031"/><text fill="#000000" font-family="sans-serif" font-size="13" font-weight="bold" lengthAdjust="spacing" textLength="9" x="758.5" y="729.1372">5</text><text fill="#000000" font-family="sans-serif" font-size="13" lengthAdjust="spacing" textLength="77" x="771.5" y="729.1372">ask to store</text><!--MD5=[4eb0db220af6f7735ce313564eecf036]
@startuml

autonumber
title Inner Bank Payment Transfer

actor "user" as user #blue
box "payment-process" #LightGreen
    boundary "request" as request <<handler>>
    participant "validation" as validation <<component>>
    participant "charges" as charges <<component>>
    participant "accounting" as accounting <<component>>
    database "database" as database <<component>>
 endbox
 
 == REQUEST HANDLE PHASE ==
 user -> request : sends the payment request
 note over request
 * receive data as mentioned in contract
 end note


== VALIDATION PHASE==
 request -> validation: ask for validation
 note over validation
 * sender receiver account exists
 * sender receiver account status 
 * balance check
 * limit of transfer
 end note
 
 == CHARGES PHASE ==
 validation -> charges: ask for charge calculation
 note over charges
 * calculate charge
 * make the charge entry
 end note 
 
 == ACCOUTING PHASE ==
 charges -> accounting : ask for accounting
 note over accounting
 * make journal voucher entry
 * ledger accounting
 end note
 
 == STORAGE PHASE ==
 accounting -> databae : ask to store
 @enduml

PlantUML version 1.2021.01(Tue Feb 02 13:40:08 NPT 2021)
(GPL source distribution)
Java Runtime: OpenJDK Runtime Environment
JVM: Dynamic Code Evolution 64-Bit Server VM
Default Encoding: UTF-8
Language: en
Country: US
--></g></svg>